<?xml version="1.0" standalone="no"?>
<!DOCTYPE svg PUBLIC "-//W3C//DTD SVG 20010904//EN"
 "http://www.w3.org/TR/2001/REC-SVG-20010904/DTD/svg10.dtd">
<svg version="1.0" xmlns="http://www.w3.org/2000/svg"
 width="1024.000000pt" height="1024.000000pt" viewBox="0 0 1024.000000 1024.000000"
 preserveAspectRatio="xMidYMid meet">
<metadata>
Created by potrace 1.16, written by Peter Selinger 2001-2019
</metadata>
<g transform="translate(0.000000,1024.000000) scale(0.100000,-0.100000)"
fill="#223c55" stroke="none">
<path d="M3354 8319 c-384 -28 -687 -169 -950 -441 -194 -202 -296 -401 -356
-700 l-23 -113 0 -1665 c0 -1573 1 -1671 18 -1770 54 -306 204 -593 426 -819
l69 -70 -116 -308 c-135 -356 -141 -391 -87 -459 46 -56 89 -76 155 -72 57 4
61 6 825 363 132 62 264 118 293 124 38 8 489 11 1576 11 1022 0 1558 4 1632
11 401 40 701 176 965 439 219 217 345 457 411 782 l23 113 0 1665 c0 1859 5
1733 -70 1958 -71 212 -169 375 -318 529 -240 247 -525 381 -899 422 -115 13
-3399 13 -3574 0z m1877 -634 c216 -18 430 -125 597 -299 87 -90 138 -173 181
-293 52 -142 53 -157 49 -1123 -4 -890 -4 -895 -26 -974 -82 -295 -311 -545
-589 -646 -160 -58 -310 -72 -464 -45 -260 45 -499 194 -637 397 -51 74 -110
205 -134 298 l-23 85 0 925 c0 914 0 926 21 1005 84 311 306 539 624 639 83
27 230 46 300 40 19 -2 65 -6 101 -9z m-1448 -1779 c46 -19 74 -54 86 -106 6
-26 11 -179 11 -358 0 -352 9 -424 75 -608 104 -292 334 -541 630 -684 193
-94 345 -130 545 -130 267 0 513 85 741 257 249 187 419 458 484 772 11 55 16
160 19 417 5 391 6 398 80 434 79 38 179 15 227 -51 l24 -34 0 -325 c0 -206
-5 -358 -13 -415 -43 -306 -106 -487 -242 -689 -181 -269 -481 -510 -761 -610
-84 -30 -262 -74 -371 -91 l-38 -6 0 -194 0 -195 261 0 c221 0 266 -2 296 -16
109 -52 124 -206 27 -280 l-37 -29 -674 -8 c-468 -5 -685 -5 -713 3 -81 22
-141 114 -126 194 8 44 59 104 103 122 24 11 95 14 283 14 l250 0 0 195 0 194
-37 6 c-342 59 -555 152 -804 353 -240 194 -441 499 -515 786 -41 157 -46 225
-51 606 -4 355 -3 377 15 410 37 67 147 100 225 66z"/>
<path d="M4394 6879 c-17 -5 -39 -17 -48 -28 -44 -49 -45 -62 -46 -756 0 -401
4 -674 10 -694 28 -100 143 -121 203 -37 l22 31 3 690 c2 466 0 702 -8 726
-16 56 -74 85 -136 68z"/>
<path d="M4840 6872 c-73 -36 -70 -7 -70 -764 0 -737 0 -736 55 -772 31 -20
94 -20 123 0 53 37 52 18 52 768 0 427 -4 705 -10 720 -11 29 -64 66 -95 66
-11 0 -36 -8 -55 -18z"/>
<path d="M5303 6876 c-65 -30 -63 -1 -63 -782 l0 -706 34 -34 c28 -28 41 -34
78 -34 24 0 54 7 66 16 53 37 52 19 52 751 0 418 -4 692 -10 714 -20 70 -91
105 -157 75z"/>
<path d="M5768 6874 c-16 -8 -37 -32 -48 -54 -19 -38 -20 -58 -20 -718 l0
-679 23 -34 c12 -18 34 -40 47 -47 39 -20 98 -8 134 27 l31 31 3 688 c2 483 0
698 -8 725 -19 66 -99 96 -162 61z"/>
</g>
</svg>
